<?xml version="1.0" encoding="UTF-8" standalone="no"?>
<svg
   xmlns:dc="http://purl.org/dc/elements/1.1/"
   xmlns:cc="http://creativecommons.org/ns#"
   xmlns:rdf="http://www.w3.org/1999/02/22-rdf-syntax-ns#"
   xmlns:svg="http://www.w3.org/2000/svg"
   xmlns="http://www.w3.org/2000/svg"
   xmlns:sodipodi="http://sodipodi.sourceforge.net/DTD/sodipodi-0.dtd"
   xmlns:inkscape="http://www.inkscape.org/namespaces/inkscape"
   version="1.0"
   width="640px"
   height="640px"
   viewBox="0 0 6400 6400"
   preserveAspectRatio="xMidYMid meet"
   id="svg7"
   sodipodi:docname="cic_logo_large_bw.svg"
   inkscape:version="0.92.1 r15371">
  <metadata
     id="metadata13">
    <rdf:RDF>
      <cc:Work
         rdf:about="">
        <dc:format>image/svg+xml</dc:format>
        <dc:type
           rdf:resource="http://purl.org/dc/dcmitype/StillImage" />
      </cc:Work>
    </rdf:RDF>
  </metadata>
  <defs
     id="defs11" />
  <sodipodi:namedview
     pagecolor="#ffffff"
     bordercolor="#666666"
     borderopacity="1"
     objecttolerance="10"
     gridtolerance="10"
     guidetolerance="10"
     inkscape:pageopacity="0"
     inkscape:pageshadow="2"
     inkscape:window-width="1440"
     inkscape:window-height="873"
     id="namedview9"
     showgrid="false"
     inkscape:zoom="0.7375"
     inkscape:cx="147.50291"
     inkscape:cy="279.05209"
     inkscape:window-x="0"
     inkscape:window-y="27"
     inkscape:window-maximized="1"
     inkscape:current-layer="svg7" />
  <g
     id="layer1"
     fill="#ffffff"
     stroke="none"
     style="fill:#f79323;fill-opacity:1">
    <path
       d="M2997 5646 c-167 -84 -367 -213 -495 -320 -203 -170 -415 -413 -569 -654 -81 -127 -229 -420 -288 -572 -170 -434 -278 -931 -327 -1510 -14 -166 -14 -912 0 -1114 l7 -108 427 -174 c235 -95 435 -174 445 -176 17 -3 18 9 21 145 1 81 6 147 10 147 4 0 99 -33 212 -73 l205 -73 5 -138 c4 -109 8 -141 20 -148 8 -5 130 -51 270 -103 l255 -95 260 96 c143 53 266 101 272 106 9 7 13 54 15 146 l3 136 205 73 c113 40 208 73 212 73 4 0 9 -66 10 -148 3 -135 4 -147 21 -144 10 2 210 81 445 176 l427 174 7 108 c14 202 14 948 0 1114 -41 480 -121 901 -240 1266 -71 213 -112 315 -212 519 -149 305 -303 526 -525 754 -71 73 -165 163 -208 198 -123 103 -340 243 -498 321 -194 96 -196 96 -392 -2z m320 -252 c225 -116 388 -237 573 -423 459 -461 758 -1149 879 -2021 45 -323 55 -493 53 -934 0 -230 -3 -430 -7 -445 -5 -23 -25 -34 -193 -103 l-187 -76 -5 141 c-4 122 -7 142 -21 139 -8 -1 -157 -52 -330 -112 -499 -176 -573 -203 -586 -213 -9 -7 -13 -49 -13 -147 l0 -137 -142 -52 -143 -52 -142 52 -143 52 0 137 c0 98 -4 140 -12 147 -14 10 -88 37 -587 213 -173 60 -322 111 -330 112 -14 3 -17 -17 -21 -139 l-5 -141 -187 76 c-168 69 -188 80 -193 103 -4 15 -7 215 -7 445 -2 441 8 611 53 934 121 872 420 1560 879 2021 139 140 219 206 366 303 106 69 306 176 329 176 8 0 63 -25 122 -56z"
       id="path2"
       style="fill:#f79323;fill-opacity:1" />
    <path
       d="M3104 3866 c-52 -16 -111 -60 -130 -97 -11 -22 -14 -78 -14 -265 l0 -236 -60 -58 c-41 -39 -70 -80 -93 -126 -30 -65 -32 -76 -32 -179 0 -103 2 -114 32 -178 42 -88 118 -164 208 -208 67 -32 75 -34 180 -34 105 0 113 2 180 34 90 44 166 120 208 208 30 64 32 75 32 178 0 103 -2 114 -32 179 -23 46 -52 87 -93 126 l-60 58 0 236 c0 263 -2 272 -65 321 -69 52 -173 68 -261 41z"
       id="path4"
       style="fill:#f79323;fill-opacity:1" />
  </g>
</svg>
