<?xml version="1.0" encoding="UTF-8" standalone="no"?>
<svg
   xmlns:dc="http://purl.org/dc/elements/1.1/"
   xmlns:cc="http://creativecommons.org/ns#"
   xmlns:rdf="http://www.w3.org/1999/02/22-rdf-syntax-ns#"
   xmlns:svg="http://www.w3.org/2000/svg"
   xmlns="http://www.w3.org/2000/svg"
   xmlns:sodipodi="http://sodipodi.sourceforge.net/DTD/sodipodi-0.dtd"
   xmlns:inkscape="http://www.inkscape.org/namespaces/inkscape"
   version="1.0"
   width="800px"
   height="800px"
   viewBox="0 0 8000 8000"
   preserveAspectRatio="xMidYMid meet"
   id="svg19"
   sodipodi:docname="unb.svg"
   inkscape:version="0.92.1 r15371">
  <metadata
     id="metadata25">
    <rdf:RDF>
      <cc:Work
         rdf:about="">
        <dc:format>image/svg+xml</dc:format>
        <dc:type
           rdf:resource="http://purl.org/dc/dcmitype/StillImage" />
      </cc:Work>
    </rdf:RDF>
  </metadata>
  <defs
     id="defs23" />
  <sodipodi:namedview
     pagecolor="#ffffff"
     bordercolor="#666666"
     borderopacity="1"
     objecttolerance="10"
     gridtolerance="10"
     guidetolerance="10"
     inkscape:pageopacity="0"
     inkscape:pageshadow="2"
     inkscape:window-width="1440"
     inkscape:window-height="873"
     id="namedview21"
     showgrid="false"
     inkscape:zoom="0.295"
     inkscape:cx="405.08475"
     inkscape:cy="400"
     inkscape:window-x="0"
     inkscape:window-y="27"
     inkscape:window-maximized="1"
     inkscape:current-layer="svg19" />
  <g
     id="layer1"
     fill="#000000"
     stroke="none">
    <path
       d="M1320 7374 c-214 -29 -388 -142 -462 -300 -28 -59 -32 -81 -36 -173 -5 -135 11 -219 128 -651 106 -389 116 -440 98 -495 -15 -46 -59 -79 -117 -89 -22 -3 -42 -10 -45 -14 -3 -5 1 -30 8 -58 l12 -49 365 0 364 0 -3 39 c-5 57 -16 73 -59 81 -96 17 -160 66 -199 150 -23 52 -231 793 -259 923 -20 95 -19 225 1 284 49 147 241 229 462 199 162 -21 272 -80 346 -185 89 -126 117 -204 242 -693 87 -339 97 -388 98 -473 2 -139 -22 -179 -124 -205 -42 -11 -45 -14 -43 -43 2 -16 7 -42 13 -56 l10 -26 294 0 c162 0 297 4 300 8 6 10 -13 81 -27 99 -4 6 -23 15 -40 18 -58 12 -117 54 -151 108 -47 73 -72 150 -171 512 -118 438 -149 540 -191 636 -104 238 -257 379 -469 434 -60 16 -279 27 -345 19z"
       id="path2" />
    <path
       d="M2706 7341 c-7 -10 19 -88 35 -108 6 -7 26 -13 44 -13 18 0 47 -10 66 -23 77 -52 132 -160 199 -394 93 -326 260 -947 260 -968 0 -29 -53 -101 -93 -125 -18 -11 -50 -25 -72 -31 -86 -23 -87 -25 -80 -72 4 -23 12 -48 17 -54 8 -10 60 -13 198 -13 l188 0 20 33 c11 17 66 122 122 232 56 110 128 250 160 310 96 183 162 311 291 560 68 131 124 234 126 229 1 -5 35 -121 73 -259 210 -742 223 -800 201 -882 -17 -63 -39 -83 -111 -102 -57 -14 -65 -20 -68 -42 -2 -14 2 -37 7 -52 l11 -27 285 0 c227 0 287 3 291 13 7 19 -18 89 -36 98 -8 4 -34 12 -57 18 -57 16 -96 58 -142 154 -39 82 -60 154 -230 767 -50 179 -101 363 -114 410 l-24 85 64 122 c35 68 62 127 58 133 -10 15 -290 13 -302 -2 -6 -7 -65 -121 -133 -253 -103 -202 -551 -1076 -554 -1082 -1 -1 -30 103 -65 230 -35 128 -93 335 -127 461 -119 427 -111 496 58 530 72 14 80 28 54 90 l-15 36 -300 0 c-165 0 -302 -4 -305 -9z"
       id="path4" />
    <path
       d="M4865 7340 c-7 -11 13 -90 27 -107 6 -7 20 -13 32 -13 44 0 127 -32 161 -61 54 -48 78 -111 175 -464 50 -181 120 -433 155 -560 80 -285 90 -337 76 -386 -14 -45 -42 -65 -118 -82 -53 -12 -58 -15 -55 -37 2 -14 10 -40 18 -58 l14 -34 472 5 c507 5 541 8 637 57 119 60 190 155 210 281 39 242 -128 439 -438 519 l-45 12 65 25 c127 51 230 139 280 240 21 43 24 62 24 168 0 114 -2 123 -31 186 -79 167 -270 275 -544 309 -110 13 -1107 14 -1115 0z m1033 -136 c160 -33 278 -121 319 -236 28 -81 25 -227 -6 -296 -58 -130 -212 -192 -475 -192 l-122 0 -68 253 c-38 138 -71 277 -73 308 -9 99 21 151 100 169 58 14 245 11 325 -6z m-18 -864 c329 -31 482 -153 484 -385 2 -203 -102 -282 -385 -293 l-137 -4 -23 68 c-12 38 -55 191 -95 339 -80 301 -80 283 6 284 25 1 92 -4 150 -9z"
       id="path6" />
  </g>
  <g
     id="layer2"
     fill="#cf4044"
     stroke="none">
    <path
       d="M6524 5013 c-51 -90 -187 -226 -297 -298 -167 -108 -403 -207 -636 -265 -200 -50 -452 -82 -786 -98 -84 -4 -139 -11 -138 -17 3 -15 59 -22 284 -36 302 -18 680 7 971 67 43 8 82 13 88 9 20 -12 126 -196 191 -330 117 -244 205 -526 244 -785 23 -149 31 -443 16 -582 -66 -604 -363 -1107 -882 -1488 -49 -36 -102 -74 -118 -83 l-30 -17 31 82 c43 115 84 274 105 409 24 154 23 502 -1 679 -76 552 -254 986 -562 1370 -151 189 -405 421 -641 586 -215 151 -284 186 -433 223 -180 44 -608 187 -1080 361 -212 78 -389 142 -394 143 -5 1 -10 -3 -13 -9 -2 -7 68 -51 159 -99 1274 -687 1836 -1240 2106 -2076 85 -264 121 -482 129 -790 11 -413 -43 -767 -177 -1183 -27 -82 -47 -153 -44 -157 5 -9 8 -7 274 108 897 391 1472 766 1805 1178 199 247 326 501 406 816 85 337 107 784 54 1095 -61 352 -177 622 -453 1054 -144 226 -130 216 -178 133z"
       id="path9" />
  </g>
</svg>
